<svg width="376" height="155" viewBox="0 0 376 155" fill="none" xmlns="http://www.w3.org/2000/svg">
<rect width="376" height="155" rx="15" fill="#FFCC53"/>
<path d="M29.4437 127.5H28.1226C28.0445 127.12 27.9078 126.786 27.7125 126.499C27.5207 126.211 27.2864 125.969 27.0094 125.774C26.7359 125.575 26.4323 125.426 26.0985 125.327C25.7647 125.227 25.4167 125.178 25.0545 125.178C24.394 125.178 23.7956 125.344 23.2594 125.678C22.7267 126.012 22.3023 126.504 21.9863 127.154C21.6738 127.804 21.5175 128.601 21.5175 129.545C21.5175 130.49 21.6738 131.287 21.9863 131.937C22.3023 132.587 22.7267 133.079 23.2594 133.413C23.7956 133.746 24.394 133.913 25.0545 133.913C25.4167 133.913 25.7647 133.864 26.0985 133.764C26.4323 133.665 26.7359 133.517 27.0094 133.322C27.2864 133.123 27.5207 132.88 27.7125 132.592C27.9078 132.301 28.0445 131.967 28.1226 131.591H29.4437C29.3442 132.148 29.1631 132.647 28.9003 133.088C28.6376 133.528 28.3109 133.903 27.9202 134.212C27.5296 134.517 27.091 134.75 26.6045 134.909C26.1216 135.069 25.6049 135.149 25.0545 135.149C24.1241 135.149 23.2967 134.922 22.5722 134.467C21.8478 134.013 21.2778 133.366 20.8623 132.528C20.4469 131.69 20.2391 130.696 20.2391 129.545C20.2391 128.395 20.4469 127.401 20.8623 126.562C21.2778 125.724 21.8478 125.078 22.5722 124.624C23.2967 124.169 24.1241 123.942 25.0545 123.942C25.6049 123.942 26.1216 124.022 26.6045 124.181C27.091 124.341 27.5296 124.576 27.9202 124.885C28.3109 125.19 28.6376 125.563 28.9003 126.003C29.1631 126.44 29.3442 126.939 29.4437 127.5ZM31.4079 135V126.818H32.6224V128.054H32.7076C32.8568 127.649 33.1266 127.321 33.5173 127.069C33.9079 126.816 34.3482 126.69 34.8383 126.69C34.9306 126.69 35.046 126.692 35.1845 126.696C35.323 126.699 35.4278 126.705 35.4988 126.712V127.99C35.4562 127.979 35.3585 127.963 35.2058 127.942C35.0567 127.917 34.8987 127.905 34.7318 127.905C34.334 127.905 33.9789 127.988 33.6664 128.155C33.3575 128.319 33.1124 128.546 32.9313 128.837C32.7538 129.125 32.665 129.453 32.665 129.822V135H31.4079ZM40.1703 135.17C39.382 135.17 38.7019 134.996 38.1302 134.648C37.562 134.297 37.1234 133.807 36.8145 133.178C36.5091 132.546 36.3564 131.811 36.3564 130.973C36.3564 130.135 36.5091 129.396 36.8145 128.757C37.1234 128.114 37.5531 127.614 38.1036 127.255C38.6575 126.893 39.3038 126.712 40.0425 126.712C40.4686 126.712 40.8894 126.783 41.3049 126.925C41.7204 127.067 42.0986 127.298 42.4395 127.617C42.7804 127.933 43.0521 128.352 43.2545 128.874C43.4569 129.396 43.5581 130.039 43.5581 130.803V131.335H37.2513V130.249H42.2797C42.2797 129.787 42.1874 129.375 42.0027 129.013C41.8216 128.651 41.5624 128.365 41.225 128.155C40.8912 127.946 40.497 127.841 40.0425 127.841C39.5418 127.841 39.1085 127.965 38.7428 128.214C38.3805 128.459 38.1018 128.778 37.9065 129.173C37.7112 129.567 37.6135 129.989 37.6135 130.44V131.165C37.6135 131.783 37.72 132.306 37.9331 132.736C38.1497 133.162 38.4498 133.487 38.8333 133.711C39.2168 133.931 39.6625 134.041 40.1703 134.041C40.5006 134.041 40.7989 133.995 41.0652 133.903C41.3351 133.807 41.5677 133.665 41.763 133.477C41.9583 133.285 42.1092 133.047 42.2158 132.763L43.4303 133.104C43.3024 133.516 43.0876 133.878 42.7857 134.19C42.4839 134.499 42.111 134.741 41.6671 134.915C41.2232 135.085 40.7243 135.17 40.1703 135.17ZM39.4033 125.71L40.703 123.239H42.1732L40.5112 125.71H39.4033ZM48.9008 135.17C48.1124 135.17 47.4324 134.996 46.8607 134.648C46.2925 134.297 45.8539 133.807 45.545 133.178C45.2396 132.546 45.0869 131.811 45.0869 130.973C45.0869 130.135 45.2396 129.396 45.545 128.757C45.8539 128.114 46.2836 127.614 46.834 127.255C47.388 126.893 48.0343 126.712 48.7729 126.712C49.1991 126.712 49.6199 126.783 50.0354 126.925C50.4509 127.067 50.8291 127.298 51.17 127.617C51.5109 127.933 51.7825 128.352 51.985 128.874C52.1874 129.396 52.2886 130.039 52.2886 130.803V131.335H45.9818V130.249H51.0102C51.0102 129.787 50.9178 129.375 50.7332 129.013C50.5521 128.651 50.2928 128.365 49.9555 128.155C49.6217 127.946 49.2275 127.841 48.7729 127.841C48.2722 127.841 47.839 127.965 47.4732 128.214C47.111 128.459 46.8323 128.778 46.6369 129.173C46.4416 129.567 46.344 129.989 46.344 130.44V131.165C46.344 131.783 46.4505 132.306 46.6636 132.736C46.8802 133.162 47.1803 133.487 47.5638 133.711C47.9473 133.931 48.393 134.041 48.9008 134.041C49.231 134.041 49.5293 133.995 49.7957 133.903C50.0656 133.807 50.2982 133.665 50.4935 133.477C50.6888 133.285 50.8397 133.047 50.9462 132.763L52.1607 133.104C52.0329 133.516 51.818 133.878 51.5162 134.19C51.2144 134.499 50.8415 134.741 50.3976 134.915C49.9537 135.085 49.4548 135.17 48.9008 135.17ZM54.2009 135V126.818H55.4153V128.054H55.5006C55.6497 127.649 55.9196 127.321 56.3102 127.069C56.7009 126.816 57.1412 126.69 57.6313 126.69C57.7236 126.69 57.839 126.692 57.9775 126.696C58.116 126.699 58.2207 126.705 58.2918 126.712V127.99C58.2492 127.979 58.1515 127.963 57.9988 127.942C57.8497 127.917 57.6916 127.905 57.5247 127.905C57.127 127.905 56.7719 127.988 56.4594 128.155C56.1504 128.319 55.9054 128.546 55.7243 128.837C55.5467 129.125 55.458 129.453 55.458 129.822V135H54.2009ZM65.2578 124.091V135H64.0007V124.091H65.2578ZM69.9679 135.192C69.4494 135.192 68.9789 135.094 68.5563 134.899C68.1337 134.7 67.7982 134.414 67.5496 134.041C67.301 133.665 67.1767 133.21 67.1767 132.678C67.1767 132.209 67.269 131.829 67.4537 131.538C67.6384 131.243 67.8852 131.012 68.1941 130.845C68.5031 130.678 68.844 130.554 69.2168 130.472C69.5933 130.387 69.9715 130.32 70.3514 130.27C70.8486 130.206 71.2516 130.158 71.5606 130.126C71.8731 130.091 72.1004 130.032 72.2424 129.95C72.388 129.869 72.4608 129.727 72.4608 129.524V129.482C72.4608 128.956 72.317 128.548 72.0293 128.256C71.7453 127.965 71.3138 127.82 70.735 127.82C70.1348 127.82 69.6643 127.951 69.3234 128.214C68.9825 128.477 68.7428 128.757 68.6043 129.055L67.4111 128.629C67.6242 128.132 67.9082 127.745 68.2634 127.468C68.622 127.187 69.0127 126.992 69.4352 126.882C69.8614 126.768 70.2804 126.712 70.6923 126.712C70.9551 126.712 71.257 126.744 71.5979 126.808C71.9423 126.868 72.2744 126.994 72.594 127.186C72.9171 127.377 73.1852 127.667 73.3983 128.054C73.6114 128.441 73.7179 128.96 73.7179 129.609V135H72.4608V133.892H72.3969C72.3117 134.07 72.1696 134.26 71.9707 134.462C71.7719 134.664 71.5073 134.837 71.1771 134.979C70.8468 135.121 70.4438 135.192 69.9679 135.192ZM70.1597 134.062C70.6568 134.062 71.0759 133.965 71.4168 133.77C71.7612 133.574 72.0205 133.322 72.1945 133.013C72.372 132.704 72.4608 132.379 72.4608 132.038V130.888C72.4075 130.952 72.2903 131.01 72.1092 131.064C71.9317 131.113 71.7257 131.158 71.4913 131.197C71.2605 131.232 71.035 131.264 70.8149 131.293C70.5982 131.317 70.4225 131.339 70.2875 131.357C69.9608 131.399 69.6554 131.468 69.3713 131.564C69.0908 131.657 68.8635 131.797 68.6895 131.985C68.519 132.17 68.4338 132.422 68.4338 132.741C68.4338 133.178 68.5954 133.509 68.9185 133.732C69.2453 133.952 69.659 134.062 70.1597 134.062ZM80.2311 135V126.818H81.4456V128.097H81.5522C81.7226 127.66 81.9978 127.321 82.3778 127.079C82.7578 126.834 83.2141 126.712 83.7468 126.712C84.2865 126.712 84.7358 126.834 85.0944 127.079C85.4566 127.321 85.7389 127.66 85.9414 128.097H86.0266C86.2361 127.674 86.5504 127.338 86.9694 127.09C87.3885 126.838 87.8909 126.712 88.4769 126.712C89.2084 126.712 89.8068 126.941 90.272 127.399C90.7372 127.853 90.9698 128.562 90.9698 129.524V135H89.7127V129.524C89.7127 128.92 89.5475 128.489 89.2173 128.23C88.887 127.971 88.4982 127.841 88.0507 127.841C87.4755 127.841 87.0298 128.015 86.7137 128.363C86.3977 128.707 86.2397 129.144 86.2397 129.673V135H84.9612V129.396C84.9612 128.931 84.8103 128.556 84.5085 128.272C84.2066 127.985 83.8178 127.841 83.3419 127.841C83.0152 127.841 82.7098 127.928 82.4257 128.102C82.1452 128.276 81.9179 128.517 81.7439 128.826C81.5735 129.132 81.4882 129.485 81.4882 129.886V135H80.2311ZM95.6759 135.192C95.1574 135.192 94.6869 135.094 94.2643 134.899C93.8418 134.7 93.5062 134.414 93.2576 134.041C93.009 133.665 92.8847 133.21 92.8847 132.678C92.8847 132.209 92.9771 131.829 93.1617 131.538C93.3464 131.243 93.5932 131.012 93.9021 130.845C94.2111 130.678 94.552 130.554 94.9248 130.472C95.3013 130.387 95.6795 130.32 96.0594 130.27C96.5566 130.206 96.9597 130.158 97.2686 130.126C97.5811 130.091 97.8084 130.032 97.9504 129.95C98.096 129.869 98.1688 129.727 98.1688 129.524V129.482C98.1688 128.956 98.025 128.548 97.7373 128.256C97.4533 127.965 97.0218 127.82 96.443 127.82C95.8428 127.82 95.3723 127.951 95.0314 128.214C94.6905 128.477 94.4508 128.757 94.3123 129.055L93.1191 128.629C93.3322 128.132 93.6163 127.745 93.9714 127.468C94.33 127.187 94.7207 126.992 95.1432 126.882C95.5694 126.768 95.9884 126.712 96.4003 126.712C96.6631 126.712 96.965 126.744 97.3059 126.808C97.6503 126.868 97.9824 126.994 98.302 127.186C98.6251 127.377 98.8932 127.667 99.1063 128.054C99.3194 128.441 99.4259 128.96 99.4259 129.609V135H98.1688V133.892H98.1049C98.0197 134.07 97.8776 134.26 97.6788 134.462C97.4799 134.664 97.2153 134.837 96.8851 134.979C96.5548 135.121 96.1518 135.192 95.6759 135.192ZM95.8677 134.062C96.3648 134.062 96.7839 133.965 97.1248 133.77C97.4692 133.574 97.7285 133.322 97.9025 133.013C98.08 132.704 98.1688 132.379 98.1688 132.038V130.888C98.1155 130.952 97.9984 131.01 97.8172 131.064C97.6397 131.113 97.4337 131.158 97.1994 131.197C96.9685 131.232 96.743 131.264 96.5229 131.293C96.3062 131.317 96.1305 131.339 95.9955 131.357C95.6688 131.399 95.3634 131.468 95.0793 131.564C94.7988 131.657 94.5715 131.797 94.3975 131.985C94.2271 132.17 94.1418 132.422 94.1418 132.741C94.1418 133.178 94.3034 133.509 94.6266 133.732C94.9533 133.952 95.367 134.062 95.8677 134.062ZM107.303 138.068V133.743H107.196C107.104 133.892 106.973 134.08 106.802 134.308C106.632 134.531 106.388 134.732 106.072 134.909C105.756 135.083 105.335 135.17 104.81 135.17C104.128 135.17 103.526 134.998 103.004 134.654C102.482 134.306 102.074 133.816 101.779 133.184C101.484 132.548 101.337 131.797 101.337 130.93C101.337 130.071 101.484 129.325 101.779 128.693C102.074 128.061 102.484 127.573 103.009 127.228C103.535 126.884 104.142 126.712 104.831 126.712C105.364 126.712 105.785 126.8 106.094 126.978C106.406 127.152 106.644 127.351 106.807 127.575C106.974 127.795 107.104 127.976 107.196 128.118H107.345V126.818H108.56V138.068H107.303ZM104.98 134.041C105.485 134.041 105.911 133.91 106.259 133.647C106.607 133.381 106.871 133.013 107.052 132.544C107.234 132.072 107.324 131.527 107.324 130.909C107.324 130.298 107.235 129.764 107.058 129.306C106.88 128.844 106.617 128.485 106.269 128.23C105.921 127.971 105.492 127.841 104.98 127.841C104.448 127.841 104.004 127.978 103.649 128.251C103.297 128.521 103.033 128.888 102.855 129.354C102.681 129.815 102.594 130.334 102.594 130.909C102.594 131.491 102.683 132.021 102.86 132.496C103.041 132.969 103.308 133.345 103.659 133.626C104.014 133.903 104.455 134.041 104.98 134.041ZM116.017 131.655V126.818H117.274V135H116.017V133.615H115.932C115.74 134.031 115.442 134.384 115.037 134.675C114.632 134.963 114.121 135.107 113.503 135.107C112.992 135.107 112.537 134.995 112.139 134.771C111.742 134.544 111.429 134.203 111.202 133.748C110.975 133.29 110.861 132.713 110.861 132.017V126.818H112.118V131.932C112.118 132.528 112.285 133.004 112.619 133.359C112.956 133.714 113.386 133.892 113.908 133.892C114.22 133.892 114.538 133.812 114.861 133.652C115.188 133.493 115.462 133.248 115.682 132.917C115.905 132.587 116.017 132.166 116.017 131.655ZM123.007 135.17C122.219 135.17 121.539 134.996 120.967 134.648C120.399 134.297 119.96 133.807 119.651 133.178C119.346 132.546 119.193 131.811 119.193 130.973C119.193 130.135 119.346 129.396 119.651 128.757C119.96 128.114 120.39 127.614 120.94 127.255C121.494 126.893 122.141 126.712 122.879 126.712C123.306 126.712 123.726 126.783 124.142 126.925C124.557 127.067 124.936 127.298 125.276 127.617C125.617 127.933 125.889 128.352 126.091 128.874C126.294 129.396 126.395 130.039 126.395 130.803V131.335H120.088V130.249H125.117C125.117 129.787 125.024 129.375 124.84 129.013C124.659 128.651 124.399 128.365 124.062 128.155C123.728 127.946 123.334 127.841 122.879 127.841C122.379 127.841 121.945 127.965 121.58 128.214C121.217 128.459 120.939 128.778 120.743 129.173C120.548 129.567 120.45 129.989 120.45 130.44V131.165C120.45 131.783 120.557 132.306 120.77 132.736C120.987 133.162 121.287 133.487 121.67 133.711C122.054 133.931 122.499 134.041 123.007 134.041C123.337 134.041 123.636 133.995 123.902 133.903C124.172 133.807 124.405 133.665 124.6 133.477C124.795 133.285 124.946 133.047 125.053 132.763L126.267 133.104C126.139 133.516 125.924 133.878 125.623 134.19C125.321 134.499 124.948 134.741 124.504 134.915C124.06 135.085 123.561 135.17 123.007 135.17ZM131.866 126.818V127.884H127.625V126.818H131.866ZM128.861 124.858H130.118V132.656C130.118 133.011 130.17 133.278 130.273 133.455C130.379 133.629 130.514 133.746 130.678 133.807C130.845 133.864 131.02 133.892 131.205 133.892C131.344 133.892 131.457 133.885 131.546 133.871C131.635 133.853 131.706 133.839 131.759 133.828L132.015 134.957C131.929 134.989 131.811 135.021 131.658 135.053C131.505 135.089 131.312 135.107 131.077 135.107C130.722 135.107 130.374 135.03 130.033 134.877C129.696 134.725 129.415 134.492 129.192 134.18C128.971 133.867 128.861 133.473 128.861 132.997V124.858ZM137.315 126.818V127.884H133.075V126.818H137.315ZM134.311 124.858H135.568V132.656C135.568 133.011 135.619 133.278 135.722 133.455C135.829 133.629 135.964 133.746 136.127 133.807C136.294 133.864 136.47 133.892 136.654 133.892C136.793 133.892 136.906 133.885 136.995 133.871C137.084 133.853 137.155 133.839 137.208 133.828L137.464 134.957C137.379 134.989 137.26 135.021 137.107 135.053C136.954 135.089 136.761 135.107 136.526 135.107C136.171 135.107 135.823 135.03 135.482 134.877C135.145 134.725 134.864 134.492 134.641 134.18C134.421 133.867 134.311 133.473 134.311 132.997V124.858ZM142.548 135.17C141.76 135.17 141.08 134.996 140.508 134.648C139.94 134.297 139.501 133.807 139.192 133.178C138.887 132.546 138.734 131.811 138.734 130.973C138.734 130.135 138.887 129.396 139.192 128.757C139.501 128.114 139.931 127.614 140.481 127.255C141.035 126.893 141.682 126.712 142.42 126.712C142.847 126.712 143.267 126.783 143.683 126.925C144.098 127.067 144.477 127.298 144.817 127.617C145.158 127.933 145.43 128.352 145.632 128.874C145.835 129.396 145.936 130.039 145.936 130.803V131.335H139.629V130.249H144.658C144.658 129.787 144.565 129.375 144.381 129.013C144.2 128.651 143.94 128.365 143.603 128.155C143.269 127.946 142.875 127.841 142.42 127.841C141.92 127.841 141.486 127.965 141.121 128.214C140.758 128.459 140.48 128.778 140.284 129.173C140.089 129.567 139.991 129.989 139.991 130.44V131.165C139.991 131.783 140.098 132.306 140.311 132.736C140.528 133.162 140.828 133.487 141.211 133.711C141.595 133.931 142.04 134.041 142.548 134.041C142.879 134.041 143.177 133.995 143.443 133.903C143.713 133.807 143.946 133.665 144.141 133.477C144.336 133.285 144.487 133.047 144.594 132.763L145.808 133.104C145.68 133.516 145.466 133.878 145.164 134.19C144.862 134.499 144.489 134.741 144.045 134.915C143.601 135.085 143.102 135.17 142.548 135.17ZM155.157 135.17C154.475 135.17 153.873 134.998 153.351 134.654C152.829 134.306 152.42 133.816 152.126 133.184C151.831 132.548 151.684 131.797 151.684 130.93C151.684 130.071 151.831 129.325 152.126 128.693C152.42 128.061 152.831 127.573 153.356 127.228C153.882 126.884 154.489 126.712 155.178 126.712C155.711 126.712 156.131 126.8 156.44 126.978C156.753 127.152 156.991 127.351 157.154 127.575C157.321 127.795 157.451 127.976 157.543 128.118H157.649V124.091H158.907V135H157.692V133.743H157.543C157.451 133.892 157.319 134.08 157.149 134.308C156.978 134.531 156.735 134.732 156.419 134.909C156.103 135.083 155.682 135.17 155.157 135.17ZM155.327 134.041C155.831 134.041 156.257 133.91 156.605 133.647C156.953 133.381 157.218 133.013 157.399 132.544C157.58 132.072 157.671 131.527 157.671 130.909C157.671 130.298 157.582 129.764 157.404 129.306C157.227 128.844 156.964 128.485 156.616 128.23C156.268 127.971 155.838 127.841 155.327 127.841C154.794 127.841 154.35 127.978 153.995 128.251C153.644 128.521 153.379 128.888 153.202 129.354C153.028 129.815 152.941 130.334 152.941 130.909C152.941 131.491 153.029 132.021 153.207 132.496C153.388 132.969 153.654 133.345 154.006 133.626C154.361 133.903 154.801 134.041 155.327 134.041ZM166.54 131.655V126.818H167.797V135H166.54V133.615H166.455C166.263 134.031 165.964 134.384 165.56 134.675C165.155 134.963 164.643 135.107 164.026 135.107C163.514 135.107 163.06 134.995 162.662 134.771C162.264 134.544 161.952 134.203 161.724 133.748C161.497 133.29 161.383 132.713 161.383 132.017V126.818H162.641V131.932C162.641 132.528 162.807 133.004 163.141 133.359C163.479 133.714 163.908 133.892 164.43 133.892C164.743 133.892 165.061 133.812 165.384 133.652C165.711 133.493 165.984 133.248 166.204 132.917C166.428 132.587 166.54 132.166 166.54 131.655ZM180.114 128.651L178.984 128.97C178.913 128.782 178.808 128.599 178.67 128.422C178.535 128.24 178.35 128.091 178.116 127.974C177.882 127.857 177.582 127.798 177.216 127.798C176.715 127.798 176.298 127.914 175.964 128.145C175.634 128.372 175.469 128.661 175.469 129.013C175.469 129.325 175.582 129.572 175.81 129.753C176.037 129.934 176.392 130.085 176.875 130.206L178.089 130.504C178.821 130.682 179.366 130.953 179.725 131.319C180.083 131.681 180.263 132.148 180.263 132.72C180.263 133.189 180.128 133.608 179.858 133.977C179.591 134.347 179.219 134.638 178.739 134.851C178.26 135.064 177.702 135.17 177.067 135.17C176.232 135.17 175.541 134.989 174.995 134.627C174.448 134.265 174.101 133.736 173.956 133.04L175.149 132.741C175.263 133.182 175.477 133.512 175.794 133.732C176.113 133.952 176.53 134.062 177.045 134.062C177.631 134.062 178.096 133.938 178.441 133.69C178.789 133.437 178.963 133.136 178.963 132.784C178.963 132.5 178.864 132.262 178.665 132.07C178.466 131.875 178.16 131.729 177.748 131.634L176.385 131.314C175.636 131.136 175.085 130.861 174.734 130.488C174.386 130.112 174.212 129.641 174.212 129.077C174.212 128.615 174.341 128.207 174.6 127.852C174.863 127.496 175.22 127.218 175.671 127.015C176.126 126.813 176.64 126.712 177.216 126.712C178.025 126.712 178.661 126.889 179.123 127.244C179.588 127.599 179.918 128.068 180.114 128.651ZM182.155 135V126.818H183.412V135H182.155ZM182.794 125.455C182.549 125.455 182.338 125.371 182.16 125.204C181.986 125.037 181.899 124.837 181.899 124.602C181.899 124.368 181.986 124.167 182.16 124C182.338 123.833 182.549 123.75 182.794 123.75C183.039 123.75 183.249 123.833 183.423 124C183.6 124.167 183.689 124.368 183.689 124.602C183.689 124.837 183.6 125.037 183.423 125.204C183.249 125.371 183.039 125.455 182.794 125.455ZM189.273 126.818V127.884H185.033V126.818H189.273ZM186.269 124.858H187.526V132.656C187.526 133.011 187.577 133.278 187.68 133.455C187.787 133.629 187.922 133.746 188.085 133.807C188.252 133.864 188.428 133.892 188.612 133.892C188.751 133.892 188.864 133.885 188.953 133.871C189.042 133.853 189.113 133.839 189.166 133.828L189.422 134.957C189.337 134.989 189.218 135.021 189.065 135.053C188.912 135.089 188.719 135.107 188.484 135.107C188.129 135.107 187.781 135.03 187.44 134.877C187.103 134.725 186.822 134.492 186.599 134.18C186.379 133.867 186.269 133.473 186.269 132.997V124.858ZM194.506 135.17C193.718 135.17 193.038 134.996 192.466 134.648C191.898 134.297 191.459 133.807 191.15 133.178C190.845 132.546 190.692 131.811 190.692 130.973C190.692 130.135 190.845 129.396 191.15 128.757C191.459 128.114 191.889 127.614 192.439 127.255C192.993 126.893 193.64 126.712 194.378 126.712C194.805 126.712 195.225 126.783 195.641 126.925C196.056 127.067 196.435 127.298 196.775 127.617C197.116 127.933 197.388 128.352 197.59 128.874C197.793 129.396 197.894 130.039 197.894 130.803V131.335H191.587V130.249H196.616C196.616 129.787 196.523 129.375 196.339 129.013C196.158 128.651 195.898 128.365 195.561 128.155C195.227 127.946 194.833 127.841 194.378 127.841C193.878 127.841 193.444 127.965 193.079 128.214C192.716 128.459 192.438 128.778 192.242 129.173C192.047 129.567 191.949 129.989 191.949 130.44V131.165C191.949 131.783 192.056 132.306 192.269 132.736C192.486 133.162 192.786 133.487 193.169 133.711C193.553 133.931 193.998 134.041 194.506 134.041C194.837 134.041 195.135 133.995 195.401 133.903C195.671 133.807 195.904 133.665 196.099 133.477C196.294 133.285 196.445 133.047 196.552 132.763L197.766 133.104C197.638 133.516 197.424 133.878 197.122 134.19C196.82 134.499 196.447 134.741 196.003 134.915C195.559 135.085 195.06 135.17 194.506 135.17Z" fill="black"/>
<path d="M32.8189 96.6392C30.3757 96.6297 28.2734 96.0284 26.5121 94.8352C24.7602 93.642 23.4107 91.9138 22.4638 89.6506C21.5263 87.3873 21.0623 84.6648 21.0717 81.483C21.0717 78.3106 21.5405 75.607 22.478 73.3722C23.425 71.1373 24.7744 69.4375 26.5263 68.2727C28.2876 67.0985 30.3852 66.5114 32.8189 66.5114C35.2526 66.5114 37.3454 67.0985 39.0973 68.2727C40.8587 69.447 42.2128 71.1515 43.1598 73.3864C44.1068 75.6117 44.5755 78.3106 44.5661 81.483C44.5661 84.6742 44.0926 87.4015 43.1456 89.6648C42.2081 91.928 40.8634 93.6562 39.1115 94.8494C37.3596 96.0426 35.2621 96.6392 32.8189 96.6392ZM32.8189 91.5398C34.4856 91.5398 35.8161 90.7017 36.8104 89.0256C37.8047 87.3494 38.2971 84.8352 38.2876 81.483C38.2876 79.2765 38.0604 77.4394 37.6058 75.9716C37.1607 74.5038 36.5263 73.4006 35.7024 72.6619C34.888 71.9233 33.9268 71.554 32.8189 71.554C31.1617 71.554 29.8359 72.3826 28.8416 74.0398C27.8473 75.697 27.3454 78.178 27.3359 81.483C27.3359 83.7178 27.5585 85.5833 28.0036 87.0795C28.4581 88.5663 29.0973 89.6837 29.9212 90.4318C30.745 91.1705 31.7109 91.5398 32.8189 91.5398ZM59.7045 96.3977C57.5833 96.3977 55.6941 96.0331 54.0369 95.304C52.3892 94.5653 51.0871 93.5521 50.1307 92.2642C49.1837 90.9669 48.696 89.4706 48.6676 87.7756H54.8608C54.8987 88.4858 55.1307 89.1108 55.5568 89.6506C55.9924 90.1809 56.5701 90.5928 57.2898 90.8864C58.0095 91.1799 58.8191 91.3267 59.7188 91.3267C60.6562 91.3267 61.4848 91.161 62.2045 90.8295C62.9242 90.4981 63.4877 90.0388 63.8949 89.4517C64.3021 88.8646 64.5057 88.1875 64.5057 87.4205C64.5057 86.6439 64.2879 85.9574 63.8523 85.3608C63.4261 84.7547 62.8106 84.2812 62.0057 83.9403C61.2102 83.5994 60.2633 83.429 59.1648 83.429H56.4517V78.9119H59.1648C60.0928 78.9119 60.9119 78.7509 61.6222 78.429C62.3419 78.107 62.9006 77.6619 63.2983 77.0938C63.696 76.5161 63.8949 75.8438 63.8949 75.0767C63.8949 74.3475 63.7197 73.7083 63.3693 73.1591C63.0284 72.6004 62.5455 72.1648 61.9205 71.8523C61.3049 71.5398 60.5852 71.3835 59.7614 71.3835C58.928 71.3835 58.1657 71.535 57.4744 71.8381C56.7831 72.1316 56.2292 72.553 55.8125 73.1023C55.3958 73.6515 55.1733 74.2955 55.1449 75.0341H49.25C49.2784 73.358 49.7566 71.8807 50.6847 70.6023C51.6127 69.3239 52.8627 68.3248 54.4347 67.6051C56.0161 66.8759 57.8011 66.5114 59.7898 66.5114C61.7973 66.5114 63.554 66.8759 65.0597 67.6051C66.5653 68.3343 67.7348 69.3191 68.5682 70.5597C69.411 71.7907 69.8277 73.1733 69.8182 74.7074C69.8277 76.3362 69.321 77.6951 68.2983 78.7841C67.285 79.8731 65.964 80.5644 64.3352 80.858V81.0852C66.4754 81.3598 68.1042 82.1032 69.2216 83.3153C70.3485 84.518 70.9072 86.0237 70.8977 87.8324C70.9072 89.4896 70.429 90.9621 69.4631 92.25C68.5066 93.5379 67.1856 94.5511 65.5 95.2898C63.8144 96.0284 61.8826 96.3977 59.7045 96.3977ZM78.9126 92.6193C77.9751 92.6193 77.1702 92.2879 76.4979 91.625C75.835 90.9621 75.5036 90.1572 75.5036 89.2102C75.5036 88.2822 75.835 87.4867 76.4979 86.8239C77.1702 86.161 77.9751 85.8295 78.9126 85.8295C79.8217 85.8295 80.6172 86.161 81.299 86.8239C81.9808 87.4867 82.3217 88.2822 82.3217 89.2102C82.3217 89.8352 82.1607 90.4081 81.8388 90.929C81.5263 91.4403 81.1143 91.8523 80.603 92.1648C80.0916 92.4678 79.5282 92.6193 78.9126 92.6193ZM78.9126 78.3438C77.9751 78.3438 77.1702 78.0123 76.4979 77.3494C75.835 76.6866 75.5036 75.8816 75.5036 74.9347C75.5036 74.0066 75.835 73.2159 76.4979 72.5625C77.1702 71.8996 77.9751 71.5682 78.9126 71.5682C79.8217 71.5682 80.6172 71.8996 81.299 72.5625C81.9808 73.2159 82.3217 74.0066 82.3217 74.9347C82.3217 75.5691 82.1607 76.1468 81.8388 76.6676C81.5263 77.179 81.1143 77.5862 80.603 77.8892C80.0916 78.1922 79.5282 78.3438 78.9126 78.3438ZM98.6392 96.6392C96.196 96.6297 94.0938 96.0284 92.3324 94.8352C90.5805 93.642 89.2311 91.9138 88.2841 89.6506C87.3466 87.3873 86.8826 84.6648 86.892 81.483C86.892 78.3106 87.3608 75.607 88.2983 73.3722C89.2453 71.1373 90.5947 69.4375 92.3466 68.2727C94.108 67.0985 96.2055 66.5114 98.6392 66.5114C101.073 66.5114 103.166 67.0985 104.918 68.2727C106.679 69.447 108.033 71.1515 108.98 73.3864C109.927 75.6117 110.396 78.3106 110.386 81.483C110.386 84.6742 109.913 87.4015 108.966 89.6648C108.028 91.928 106.684 93.6562 104.932 94.8494C103.18 96.0426 101.082 96.6392 98.6392 96.6392ZM98.6392 91.5398C100.306 91.5398 101.636 90.7017 102.631 89.0256C103.625 87.3494 104.117 84.8352 104.108 81.483C104.108 79.2765 103.881 77.4394 103.426 75.9716C102.981 74.5038 102.347 73.4006 101.523 72.6619C100.708 71.9233 99.7472 71.554 98.6392 71.554C96.982 71.554 95.6563 72.3826 94.6619 74.0398C93.6676 75.697 93.1657 78.178 93.1562 81.483C93.1562 83.7178 93.3788 85.5833 93.8239 87.0795C94.2784 88.5663 94.9176 89.6837 95.7415 90.4318C96.5653 91.1705 97.5312 91.5398 98.6392 91.5398ZM126.178 96.6392C123.735 96.6297 121.633 96.0284 119.871 94.8352C118.12 93.642 116.77 91.9138 115.823 89.6506C114.886 87.3873 114.422 84.6648 114.431 81.483C114.431 78.3106 114.9 75.607 115.837 73.3722C116.784 71.1373 118.134 69.4375 119.886 68.2727C121.647 67.0985 123.745 66.5114 126.178 66.5114C128.612 66.5114 130.705 67.0985 132.457 68.2727C134.218 69.447 135.572 71.1515 136.519 73.3864C137.466 75.6117 137.935 78.3106 137.925 81.483C137.925 84.6742 137.452 87.4015 136.505 89.6648C135.567 91.928 134.223 93.6562 132.471 94.8494C130.719 96.0426 128.621 96.6392 126.178 96.6392ZM126.178 91.5398C127.845 91.5398 129.175 90.7017 130.17 89.0256C131.164 87.3494 131.656 84.8352 131.647 81.483C131.647 79.2765 131.42 77.4394 130.965 75.9716C130.52 74.5038 129.886 73.4006 129.062 72.6619C128.247 71.9233 127.286 71.554 126.178 71.554C124.521 71.554 123.195 72.3826 122.201 74.0398C121.207 75.697 120.705 78.178 120.695 81.483C120.695 83.7178 120.918 85.5833 121.363 87.0795C121.817 88.5663 122.457 89.6837 123.281 90.4318C124.104 91.1705 125.07 91.5398 126.178 91.5398ZM145.905 92.6193C144.967 92.6193 144.162 92.2879 143.49 91.625C142.827 90.9621 142.496 90.1572 142.496 89.2102C142.496 88.2822 142.827 87.4867 143.49 86.8239C144.162 86.161 144.967 85.8295 145.905 85.8295C146.814 85.8295 147.609 86.161 148.291 86.8239C148.973 87.4867 149.314 88.2822 149.314 89.2102C149.314 89.8352 149.153 90.4081 148.831 90.929C148.518 91.4403 148.107 91.8523 147.595 92.1648C147.084 92.4678 146.52 92.6193 145.905 92.6193ZM145.905 78.3438C144.967 78.3438 144.162 78.0123 143.49 77.3494C142.827 76.6866 142.496 75.8816 142.496 74.9347C142.496 74.0066 142.827 73.2159 143.49 72.5625C144.162 71.8996 144.967 71.5682 145.905 71.5682C146.814 71.5682 147.609 71.8996 148.291 72.5625C148.973 73.2159 149.314 74.0066 149.314 74.9347C149.314 75.5691 149.153 76.1468 148.831 76.6676C148.518 77.179 148.107 77.5862 147.595 77.8892C147.084 78.1922 146.52 78.3438 145.905 78.3438ZM165.631 96.6392C163.188 96.6297 161.086 96.0284 159.325 94.8352C157.573 93.642 156.223 91.9138 155.276 89.6506C154.339 87.3873 153.875 84.6648 153.884 81.483C153.884 78.3106 154.353 75.607 155.29 73.3722C156.237 71.1373 157.587 69.4375 159.339 68.2727C161.1 67.0985 163.198 66.5114 165.631 66.5114C168.065 66.5114 170.158 67.0985 171.91 68.2727C173.671 69.447 175.025 71.1515 175.972 73.3864C176.919 75.6117 177.388 78.3106 177.379 81.483C177.379 84.6742 176.905 87.4015 175.958 89.6648C175.021 91.928 173.676 93.6562 171.924 94.8494C170.172 96.0426 168.075 96.6392 165.631 96.6392ZM165.631 91.5398C167.298 91.5398 168.629 90.7017 169.623 89.0256C170.617 87.3494 171.11 84.8352 171.1 81.483C171.1 79.2765 170.873 77.4394 170.418 75.9716C169.973 74.5038 169.339 73.4006 168.515 72.6619C167.701 71.9233 166.739 71.554 165.631 71.554C163.974 71.554 162.648 72.3826 161.654 74.0398C160.66 75.697 160.158 78.178 160.148 81.483C160.148 83.7178 160.371 85.5833 160.816 87.0795C161.271 88.5663 161.91 89.6837 162.734 90.4318C163.558 91.1705 164.523 91.5398 165.631 91.5398ZM193.17 96.6392C190.727 96.6297 188.625 96.0284 186.864 94.8352C185.112 93.642 183.762 91.9138 182.815 89.6506C181.878 87.3873 181.414 84.6648 181.423 81.483C181.423 78.3106 181.892 75.607 182.83 73.3722C183.777 71.1373 185.126 69.4375 186.878 68.2727C188.639 67.0985 190.737 66.5114 193.17 66.5114C195.604 66.5114 197.697 67.0985 199.449 68.2727C201.21 69.447 202.564 71.1515 203.511 73.3864C204.458 75.6117 204.927 78.3106 204.918 81.483C204.918 84.6742 204.444 87.4015 203.497 89.6648C202.56 91.928 201.215 93.6562 199.463 94.8494C197.711 96.0426 195.614 96.6392 193.17 96.6392ZM193.17 91.5398C194.837 91.5398 196.168 90.7017 197.162 89.0256C198.156 87.3494 198.649 84.8352 198.639 81.483C198.639 79.2765 198.412 77.4394 197.957 75.9716C197.512 74.5038 196.878 73.4006 196.054 72.6619C195.24 71.9233 194.278 71.554 193.17 71.554C191.513 71.554 190.188 72.3826 189.193 74.0398C188.199 75.697 187.697 78.178 187.688 81.483C187.688 83.7178 187.91 85.5833 188.355 87.0795C188.81 88.5663 189.449 89.6837 190.273 90.4318C191.097 91.1705 192.062 91.5398 193.17 91.5398Z" fill="black"/>
<path d="M352 32C352.552 32 353 31.5523 353 31C353 30.4477 352.552 30 352 30C351.448 30 351 30.4477 351 31C351 31.5523 351.448 32 352 32Z" stroke="black" stroke-width="2" stroke-linecap="round" stroke-linejoin="round"/>
<path d="M359 32C359.552 32 360 31.5523 360 31C360 30.4477 359.552 30 359 30C358.448 30 358 30.4477 358 31C358 31.5523 358.448 32 359 32Z" stroke="black" stroke-width="2" stroke-linecap="round" stroke-linejoin="round"/>
<path d="M345 32C345.552 32 346 31.5523 346 31C346 30.4477 345.552 30 345 30C344.448 30 344 30.4477 344 31C344 31.5523 344.448 32 345 32Z" stroke="black" stroke-width="2" stroke-linecap="round" stroke-linejoin="round"/>
<path d="M25.25 21.25H29.75" stroke="black" stroke-width="2" stroke-linecap="round" stroke-linejoin="round"/>
<path d="M27.5 34.75L30.875 31.375" stroke="black" stroke-width="2" stroke-linecap="round" stroke-linejoin="round"/>
<path d="M27.5 43.75C32.4706 43.75 36.5 39.7206 36.5 34.75C36.5 29.7794 32.4706 25.75 27.5 25.75C22.5294 25.75 18.5 29.7794 18.5 34.75C18.5 39.7206 22.5294 43.75 27.5 43.75Z" stroke="black" stroke-width="2" stroke-linecap="round" stroke-linejoin="round"/>
<rect x="306" y="57" width="58" height="48" rx="24" fill="#4811F7"/>
<path d="M329 72L343 81L329 90V72Z" stroke="white" stroke-width="2" stroke-linecap="round" stroke-linejoin="round"/>
<path d="M48.2193 27.6634V25.4545H59.8244V27.6634H55.3287V40H52.715V27.6634H48.2193ZM61.948 40V29.0909H64.519V40H61.948ZM63.2406 27.5426C62.8334 27.5426 62.483 27.4077 62.1895 27.1378C61.8959 26.8632 61.7491 26.5341 61.7491 26.1506C61.7491 25.7623 61.8959 25.4332 62.1895 25.1634C62.483 24.8887 62.8334 24.7514 63.2406 24.7514C63.6525 24.7514 64.0029 24.8887 64.2917 25.1634C64.5853 25.4332 64.7321 25.7623 64.7321 26.1506C64.7321 26.5341 64.5853 26.8632 64.2917 27.1378C64.0029 27.4077 63.6525 27.5426 63.2406 27.5426ZM67.1628 40V29.0909H69.6202V30.9446H69.748C69.9753 30.3196 70.3517 29.8319 70.8773 29.4815C71.4029 29.1264 72.0302 28.9489 72.7594 28.9489C73.498 28.9489 74.1207 29.1288 74.6273 29.4886C75.1387 29.8437 75.4985 30.3291 75.7069 30.9446H75.8205C76.062 30.3385 76.4692 29.8556 77.0421 29.4957C77.6197 29.1312 78.3039 28.9489 79.0946 28.9489C80.0984 28.9489 80.9176 29.2661 81.552 29.9006C82.1865 30.535 82.5037 31.4607 82.5037 32.6776V40H79.9256V33.0753C79.9256 32.3982 79.7457 31.9034 79.3858 31.5909C79.026 31.2737 78.5856 31.1151 78.0648 31.1151C77.4445 31.1151 76.9592 31.3092 76.6088 31.6974C76.2632 32.081 76.0904 32.5805 76.0904 33.196V40H73.5691V32.9688C73.5691 32.4053 73.3986 31.9555 73.0577 31.6193C72.7215 31.2831 72.2812 31.1151 71.7367 31.1151C71.3674 31.1151 71.0312 31.2098 70.7282 31.3991C70.4251 31.5838 70.1837 31.8466 70.0037 32.1875C69.8238 32.5237 69.7338 32.9167 69.7338 33.3665V40H67.1628ZM89.9416 40.2131C88.8478 40.2131 87.9032 39.9858 87.1078 39.5312C86.3171 39.072 85.7086 38.4233 85.2825 37.5852C84.8564 36.7424 84.6433 35.7505 84.6433 34.6094C84.6433 33.4872 84.8564 32.5024 85.2825 31.6548C85.7134 30.8026 86.3147 30.1397 87.0865 29.6662C87.8583 29.188 88.765 28.9489 89.8066 28.9489C90.479 28.9489 91.1135 29.0578 91.71 29.2756C92.3114 29.4886 92.8417 29.8201 93.301 30.2699C93.765 30.7197 94.1296 31.2926 94.3947 31.9886C94.6599 32.6799 94.7924 33.5038 94.7924 34.4602V35.2486H85.8507V33.5156H92.3279C92.3232 33.0232 92.2167 32.5852 92.0083 32.2017C91.8 31.8134 91.5088 31.508 91.1348 31.2855C90.7654 31.063 90.3346 30.9517 89.8422 30.9517C89.3166 30.9517 88.8549 31.0795 88.4572 31.3352C88.0595 31.5862 87.7493 31.9176 87.5268 32.3295C87.309 32.7367 87.1977 33.1842 87.193 33.6719V35.1847C87.193 35.8191 87.309 36.3636 87.541 36.8182C87.773 37.268 88.0974 37.6136 88.514 37.8551C88.9307 38.0919 89.4184 38.2102 89.9771 38.2102C90.3511 38.2102 90.6897 38.1581 90.9927 38.054C91.2958 37.9451 91.5585 37.7865 91.7811 37.5781C92.0036 37.3698 92.1717 37.1117 92.2853 36.804L94.6859 37.0739C94.5344 37.7083 94.2456 38.2623 93.8194 38.7358C93.398 39.2045 92.8583 39.5691 92.2001 39.8295C91.542 40.0852 90.7891 40.2131 89.9416 40.2131ZM96.9675 40V29.0909H99.4604V30.9091H99.574C99.7729 30.2794 100.114 29.794 100.597 29.4531C101.084 29.1075 101.641 28.9347 102.266 28.9347C102.408 28.9347 102.566 28.9418 102.742 28.956C102.922 28.9654 103.071 28.982 103.189 29.0057V31.3707C103.08 31.3329 102.907 31.2997 102.671 31.2713C102.439 31.2382 102.214 31.2216 101.996 31.2216C101.527 31.2216 101.106 31.3234 100.732 31.527C100.362 31.7259 100.071 32.0028 99.8581 32.358C99.6451 32.7131 99.5385 33.1226 99.5385 33.5866V40H96.9675Z" fill="black"/>
</svg>
